<mxfile host="65bd71144e">
    <diagram id="2TrtU179_aahop9Hr8SO" name="Page-1">
        <mxGraphModel dx="1486" dy="472" grid="1" gridSize="10" guides="1" tooltips="1" connect="1" arrows="1" fold="1" page="1" pageScale="1" pageWidth="850" pageHeight="1100" math="0" shadow="0">
            <root>
                <mxCell id="0"/>
                <mxCell id="1" parent="0"/>
                <mxCell id="9" style="edgeStyle=none;html=1;" parent="1" source="2" target="5" edge="1">
                    <mxGeometry relative="1" as="geometry"/>
                </mxCell>
                <mxCell id="10" style="edgeStyle=none;html=1;" parent="1" source="2" target="3" edge="1">
                    <mxGeometry relative="1" as="geometry"/>
                </mxCell>
                <mxCell id="11" style="edgeStyle=none;html=1;" parent="1" source="2" target="6" edge="1">
                    <mxGeometry relative="1" as="geometry"/>
                </mxCell>
                <mxCell id="12" style="edgeStyle=none;html=1;" parent="1" source="2" target="7" edge="1">
                    <mxGeometry relative="1" as="geometry"/>
                </mxCell>
                <mxCell id="22" style="edgeStyle=none;html=1;entryX=0;entryY=0.5;entryDx=0;entryDy=0;" parent="1" source="2" target="21" edge="1">
                    <mxGeometry relative="1" as="geometry"/>
                </mxCell>
                <mxCell id="2" value="" style="ellipse;whiteSpace=wrap;html=1;aspect=fixed;" parent="1" vertex="1">
                    <mxGeometry x="80" y="440" width="320" height="320" as="geometry"/>
                </mxCell>
                <mxCell id="23" style="edgeStyle=none;html=1;" parent="1" source="3" target="21" edge="1">
                    <mxGeometry relative="1" as="geometry"/>
                </mxCell>
                <mxCell id="3" value="ModelManager" style="ellipse;whiteSpace=wrap;html=1;aspect=fixed;" parent="1" vertex="1">
                    <mxGeometry x="120" y="920" width="120" height="120" as="geometry"/>
                </mxCell>
                <mxCell id="24" style="edgeStyle=none;html=1;" parent="1" source="5" target="21" edge="1">
                    <mxGeometry relative="1" as="geometry"/>
                </mxCell>
                <mxCell id="5" value="ModelManager" style="ellipse;whiteSpace=wrap;html=1;aspect=fixed;" parent="1" vertex="1">
                    <mxGeometry x="280" y="920" width="120" height="120" as="geometry"/>
                </mxCell>
                <mxCell id="25" style="edgeStyle=none;html=1;" parent="1" source="6" target="21" edge="1">
                    <mxGeometry relative="1" as="geometry"/>
                </mxCell>
                <mxCell id="6" value="ModelManager" style="ellipse;whiteSpace=wrap;html=1;aspect=fixed;" parent="1" vertex="1">
                    <mxGeometry x="440" y="920" width="120" height="120" as="geometry"/>
                </mxCell>
                <mxCell id="26" style="edgeStyle=none;html=1;" parent="1" source="7" target="21" edge="1">
                    <mxGeometry relative="1" as="geometry"/>
                </mxCell>
                <mxCell id="7" value="ModelManager" style="ellipse;whiteSpace=wrap;html=1;aspect=fixed;" parent="1" vertex="1">
                    <mxGeometry x="600" y="920" width="120" height="120" as="geometry"/>
                </mxCell>
                <mxCell id="16" style="edgeStyle=none;html=1;" parent="1" source="13" target="2" edge="1">
                    <mxGeometry relative="1" as="geometry"/>
                </mxCell>
                <mxCell id="13" value="" style="ellipse;whiteSpace=wrap;html=1;aspect=fixed;" parent="1" vertex="1">
                    <mxGeometry x="80" y="80" width="320" height="320" as="geometry"/>
                </mxCell>
                <mxCell id="15" value="" style="edgeStyle=none;html=1;align=center;" parent="1" source="14" target="2" edge="1">
                    <mxGeometry x="-0.7919" y="110" relative="1" as="geometry">
                        <mxPoint as="offset"/>
                    </mxGeometry>
                </mxCell>
                <mxCell id="14" value="" style="ellipse;whiteSpace=wrap;html=1;aspect=fixed;shadow=0;" parent="1" vertex="1">
                    <mxGeometry x="440" y="80" width="320" height="320" as="geometry"/>
                </mxCell>
                <mxCell id="19" value="&lt;h1&gt;Satori Network&lt;/h1&gt;&lt;p&gt;&lt;span style=&quot;font-size: 11px ; text-align: center&quot;&gt;Blockchain component used to get a map of the network&amp;nbsp;&lt;/span&gt;&lt;span style=&quot;font-size: 11px ; text-align: center&quot;&gt;in order to find the mostlikely&amp;nbsp;&lt;/span&gt;&lt;span style=&quot;font-size: 11px ; text-align: center&quot;&gt;best streams to help the&lt;/span&gt;&lt;br style=&quot;font-size: 11px ; text-align: center&quot;&gt;&lt;span style=&quot;font-size: 11px ; text-align: center&quot;&gt;ModelManagers predict their&amp;nbsp;&lt;/span&gt;&lt;span style=&quot;font-size: 11px ; text-align: center&quot;&gt;chosen datastreams.&lt;/span&gt;&lt;br&gt;&lt;/p&gt;" style="text;html=1;strokeColor=none;fillColor=none;spacing=5;spacingTop=-20;whiteSpace=wrap;overflow=hidden;rounded=0;shadow=0;" parent="1" vertex="1">
                    <mxGeometry x="493.75" y="180" width="212.5" height="120" as="geometry"/>
                </mxCell>
                <mxCell id="20" value="&lt;h1&gt;Streamr / Streams&lt;/h1&gt;&lt;div&gt;Contains all streams we may want to subscribe to&lt;/div&gt;" style="text;html=1;strokeColor=none;fillColor=none;spacing=5;spacingTop=-20;whiteSpace=wrap;overflow=hidden;rounded=0;shadow=0;" parent="1" vertex="1">
                    <mxGeometry x="132.5" y="180" width="215" height="120" as="geometry"/>
                </mxCell>
                <mxCell id="27" style="edgeStyle=none;html=1;" parent="1" source="21" target="14" edge="1">
                    <mxGeometry relative="1" as="geometry"/>
                </mxCell>
                <mxCell id="28" style="edgeStyle=none;html=1;" parent="1" source="21" target="13" edge="1">
                    <mxGeometry relative="1" as="geometry"/>
                </mxCell>
                <mxCell id="21" value="" style="ellipse;whiteSpace=wrap;html=1;aspect=fixed;" parent="1" vertex="1">
                    <mxGeometry x="440" y="440" width="320" height="320" as="geometry"/>
                </mxCell>
                <mxCell id="29" value="&lt;h1&gt;Manager&lt;/h1&gt;&lt;div&gt;Transacts with the blockchain and pub sub ststem, and provides the user with a UI to control and monitor the system. If no blockchain or streamr system present, the manager can spoof those two systems making for a private, on-prem, standalone distributed predictive engine.&lt;/div&gt;" style="text;html=1;strokeColor=none;fillColor=none;spacing=5;spacingTop=-20;whiteSpace=wrap;overflow=hidden;rounded=0;shadow=0;" parent="1" vertex="1">
                    <mxGeometry x="493.75" y="510" width="212.5" height="180" as="geometry"/>
                </mxCell>
                <mxCell id="30" value="&lt;h1&gt;DataManager&lt;/h1&gt;&lt;div&gt;Collects data from the streams, combines and provides to the ModelManagers. Will use the map of publishers and subscribers to recommend useful streams to ModelManagers&lt;/div&gt;" style="text;html=1;strokeColor=none;fillColor=none;spacing=5;spacingTop=-20;whiteSpace=wrap;overflow=hidden;rounded=0;shadow=0;" parent="1" vertex="1">
                    <mxGeometry x="133.75" y="530" width="212.5" height="140" as="geometry"/>
                </mxCell>
            </root>
        </mxGraphModel>
    </diagram>
</mxfile>